<?xml version="1.0" standalone="no"?>
<!DOCTYPE svg PUBLIC "-//W3C//DTD SVG 20010904//EN"
 "http://www.w3.org/TR/2001/REC-SVG-20010904/DTD/svg10.dtd">
<svg version="1.0" xmlns="http://www.w3.org/2000/svg"
 width="1084.000000pt" height="1084.000000pt" viewBox="0 0 1084.000000 1084.000000"
 preserveAspectRatio="xMidYMid meet">
<metadata>
Created by potrace 1.14, written by Peter Selinger 2001-2017
</metadata>
<g transform="translate(0.000000,1084.000000) scale(0.100000,-0.100000)"
fill="#000000" stroke="none">
<path d="M180 5425 l0 -3275 48 -1 c210 -3 954 0 958 4 3 3 6 676 6 1495 l0
1489 1239 0 1239 0 0 -1493 c0 -1416 1 -1494 18 -1495 9 0 235 -1 501 -1 328
-1 485 2 490 10 4 7 7 6425 2 6525 -1 16 -32 17 -506 17 l-505 0 0 -1345 0
-1345 -1239 0 -1240 0 0 1308 c0 719 0 1324 0 1345 l-1 37 -505 0 -505 0 0
-3275z"/>
<path d="M6210 5425 l0 -3275 38 0 c319 -3 914 -1 919 3 7 8 6 3420 -1 3547
-3 52 -8 142 -12 200 -3 58 -7 125 -9 150 -2 25 -7 83 -10 130 -4 47 -8 99
-10 116 -2 17 -6 62 -10 100 -3 38 -8 85 -10 104 -3 19 -7 67 -10 105 -3 39
-8 88 -10 110 -3 22 -7 76 -10 120 -3 44 -7 100 -10 125 -7 73 -25 324 -29
413 -3 53 17 66 34 22 6 -15 22 -52 36 -83 14 -31 34 -75 44 -97 9 -22 24 -56
33 -75 8 -19 34 -78 57 -130 23 -52 50 -113 60 -135 37 -80 70 -156 70 -160 0
-2 13 -32 29 -67 34 -74 77 -169 98 -218 9 -19 24 -53 33 -75 10 -22 35 -78
55 -125 21 -47 47 -105 57 -130 27 -60 246 -507 921 -1880 82 -168 208 -424
279 -570 225 -457 360 -733 547 -1113 100 -203 181 -373 181 -378 0 -11 -44
-10 573 -11 274 0 501 2 503 5 3 3 6 1476 6 3274 l0 3268 -482 3 -481 2 4
-1817 c2 -1000 7 -1836 10 -1858 3 -22 8 -92 12 -155 3 -63 8 -131 9 -150 2
-19 7 -71 11 -115 3 -44 8 -98 10 -120 3 -22 7 -65 9 -95 6 -69 15 -161 22
-220 2 -25 7 -76 9 -115 3 -38 7 -97 10 -130 5 -66 12 -160 20 -257 17 -242
17 -238 3 -238 -16 0 -17 2 -223 470 -82 184 -158 358 -171 385 -12 28 -55
124 -94 215 -131 299 -95 224 -672 1400 -72 146 -190 387 -263 535 -73 149
-198 403 -277 565 -559 1138 -761 1550 -798 1627 l-35 72 -537 1 -538 0 0
-3275z"/>
</g>
</svg>
