<?xml version="1.0" encoding="utf-8"?>
<!-- Generator: Adobe Illustrator 27.2.0, SVG Export Plug-In . SVG Version: 6.00 Build 0)  -->
<svg version="1.1" id="Слой_1" xmlns="http://www.w3.org/2000/svg" xmlns:xlink="http://www.w3.org/1999/xlink" x="0px" y="0px"
	 viewBox="0 0 80 80" style="enable-background:new 0 0 80 80;" xml:space="preserve">
<g>
	<rect x="52.2" y="47.3" width="4.9" height="4.8"/>
	<rect x="47.3" y="42.4" width="4.9" height="4.8"/>
	<rect x="42.4" y="37.6" width="4.9" height="4.8"/>
	<rect x="42.4" y="65.9" width="4.9" height="4.8"/>
	<polygon points="42.4,65.9 42.4,61 40,61 37.6,61 37.6,65.9 40,65.9 	"/>
	<rect x="47.3" y="32.7" width="4.9" height="4.8"/>
	<rect x="52.2" y="27.9" width="4.9" height="4.8"/>
	<rect x="42.4" y="23.1" width="4.9" height="4.8"/>
	<polygon points="61.9,52.1 57,52.1 57,75.5 52.2,75.5 52.2,70.7 47.3,70.7 47.3,75.5 42.4,75.5 42.4,70.7 40,70.7 37.6,70.7 
		37.6,75.5 32.7,75.5 32.7,70.7 27.8,70.7 27.8,75.5 23,75.5 23,52.1 18.1,52.1 18.1,75.5 14.7,75.5 14.7,80 40,80 65.3,80 
		65.3,75.5 61.9,75.5 	"/>
	<polygon points="40,0 14.6,0 14.6,4.5 18,4.5 18,27.9 22.9,27.9 22.9,4.5 40,4.5 57.1,4.5 57.1,27.9 62,27.9 62,4.5 65.4,4.5 
		65.4,0 	"/>
	<rect x="23" y="47.3" width="4.9" height="4.8"/>
	<rect x="27.8" y="42.4" width="4.9" height="4.8"/>
	<rect x="32.7" y="37.6" width="4.9" height="4.8"/>
	<rect x="32.7" y="65.9" width="4.9" height="4.8"/>
	<rect x="27.8" y="32.7" width="4.9" height="4.8"/>
	<rect x="23" y="27.9" width="4.9" height="4.8"/>
	<polygon points="40,32.7 42.4,32.7 42.4,27.9 40,27.9 37.6,27.9 37.6,32.7 	"/>
</g>
</svg>
