<svg width="274" height="40" viewBox="0 0 274 40" fill="none" xmlns="http://www.w3.org/2000/svg">
<path d="M15.88 10.56C16.32 10.56 16.68 10.92 16.68 11.36V17.76C16.68 18.2 16.32 18.56 15.88 18.56H13.48C13.04 18.56 12.68 18.2 12.68 17.76V11.36C12.68 10.92 13.04 10.56 13.48 10.56H15.88ZM11.88 18.56C12.32 18.56 12.68 18.92 12.68 19.36V21.76C12.68 22.2 12.32 22.56 11.88 22.56H9.48C9.04 22.56 8.68 22.2 8.68 21.76V19.36C8.68 18.92 9.04 18.56 9.48 18.56H11.88ZM7.88 22.56C8.32 22.56 8.68 22.92 8.68 23.36V29.76C8.68 30.2 8.32 30.56 7.88 30.56H5.48C5.04 30.56 4.68 30.2 4.68 29.76V23.36C4.68 22.92 5.04 22.56 5.48 22.56H7.88ZM3.88 30.56C4.32 30.56 4.68 30.92 4.68 31.36V33.76C4.68 34.2 4.32 34.56 3.88 34.56H1.48C1.04 34.56 0.68 34.2 0.68 33.76V31.36C0.68 30.92 1.04 30.56 1.48 30.56H3.88ZM19.88 6.56C20.32 6.56 20.68 6.92 20.68 7.36V9.76C20.68 10.2 20.32 10.56 19.88 10.56H17.48C17.04 10.56 16.68 10.2 16.68 9.76V7.36C16.68 6.92 17.04 6.56 17.48 6.56H19.88ZM24.4453 34V7.8H28.4853V18.56H38.4053V7.8H42.4453V34H38.4053V22.04H28.4853V34H24.4453ZM49.6697 29.96H47.2697C46.8297 29.96 46.4697 29.6 46.4697 29.16V22.76C46.4697 22.32 46.8297 21.96 47.2697 21.96H49.6697C50.1097 21.96 50.4697 22.32 50.4697 22.76V29.16C50.4697 29.6 50.1097 29.96 49.6697 29.96ZM51.2697 17.96H62.4697V14.76C62.4697 14.32 62.8297 13.96 63.2697 13.96H65.6697C66.1097 13.96 66.4697 14.32 66.4697 14.76V29.16C66.4697 29.6 66.1097 29.96 65.6697 29.96H63.2697C62.8297 29.96 62.4697 29.6 62.4697 29.16V21.96H51.2697C50.8297 21.96 50.4697 21.6 50.4697 21.16V18.76C50.4697 18.32 50.8297 17.96 51.2697 17.96ZM51.2697 29.96H61.6697C62.1097 29.96 62.4697 30.32 62.4697 30.76V33.16C62.4697 33.6 62.1097 33.96 61.6697 33.96H51.2697C50.8297 33.96 50.4697 33.6 50.4697 33.16V30.76C50.4697 30.32 50.8297 29.96 51.2697 29.96ZM51.2697 9.96H61.6697C62.1097 9.96 62.4697 10.32 62.4697 10.76V13.16C62.4697 13.6 62.1097 13.96 61.6697 13.96H51.2697C50.8297 13.96 50.4697 13.6 50.4697 13.16V10.76C50.4697 10.32 50.8297 9.96 51.2697 9.96ZM82.3613 34.48C80.7346 34.48 79.2146 34.1867 77.8013 33.6C76.4146 32.9867 75.1879 32.1067 74.1213 30.96C73.0813 29.7867 72.2546 28.36 71.6413 26.68C71.0546 25 70.7613 23.0933 70.7613 20.96C70.7613 18.1067 71.2813 15.6667 72.3213 13.64C73.3613 11.5867 74.7746 10.0267 76.5613 8.96C78.3479 7.86666 80.3879 7.32 82.6813 7.32C84.2813 7.32 85.7079 7.65333 86.9613 8.32C88.2146 8.96 89.2413 9.70667 90.0413 10.56L87.8013 13.08C87.1346 12.36 86.3746 11.8 85.5213 11.4C84.6946 11 83.7479 10.8 82.6813 10.8C81.1346 10.8 79.7746 11.2133 78.6013 12.04C77.4279 12.84 76.5079 13.9867 75.8413 15.48C75.2013 16.9733 74.8813 18.76 74.8813 20.84C74.8813 22.92 75.2013 24.72 75.8413 26.24C76.5079 27.76 77.4279 28.9333 78.6013 29.76C79.8013 30.5867 81.1879 31 82.7613 31C83.9079 31 84.9346 30.76 85.8413 30.28C86.7479 29.7733 87.5879 29.0933 88.3613 28.24L90.6013 30.68C89.5879 31.88 88.4013 32.8133 87.0413 33.48C85.6813 34.1467 84.1213 34.48 82.3613 34.48ZM95.8656 34V7.8H99.9056V20.32H100.026L110.186 7.8H114.706L99.9056 25.96V34H95.8656ZM111.146 34L103.546 20L105.946 16.88L115.626 34H111.146ZM121.25 29.96H118.85C118.41 29.96 118.05 29.6 118.05 29.16V14.76C118.05 14.32 118.41 13.96 118.85 13.96H121.25C121.69 13.96 122.05 14.32 122.05 14.76V17.96H133.25C133.69 17.96 134.05 18.32 134.05 18.76V21.16C134.05 21.6 133.69 21.96 133.25 21.96H122.05V29.16C122.05 29.6 121.69 29.96 121.25 29.96ZM137.25 29.96H134.85C134.41 29.96 134.05 29.6 134.05 29.16V26.76C134.05 26.32 134.41 25.96 134.85 25.96H137.25C137.69 25.96 138.05 26.32 138.05 26.76V29.16C138.05 29.6 137.69 29.96 137.25 29.96ZM137.25 17.96H134.85C134.41 17.96 134.05 17.6 134.05 17.16V14.76C134.05 14.32 134.41 13.96 134.85 13.96H137.25C137.69 13.96 138.05 14.32 138.05 14.76V17.16C138.05 17.6 137.69 17.96 137.25 17.96ZM122.85 29.96H133.25C133.69 29.96 134.05 30.32 134.05 30.76V33.16C134.05 33.6 133.69 33.96 133.25 33.96H122.85C122.41 33.96 122.05 33.6 122.05 33.16V30.76C122.05 30.32 122.41 29.96 122.85 29.96ZM122.85 9.96H133.25C133.69 9.96 134.05 10.32 134.05 10.76V13.16C134.05 13.6 133.69 13.96 133.25 13.96H122.85C122.41 13.96 122.05 13.6 122.05 13.16V10.76C122.05 10.32 122.41 9.96 122.85 9.96ZM143.055 34V7.8H151.495C153.308 7.8 154.922 8.04 156.335 8.52C157.748 8.97333 158.855 9.76 159.655 10.88C160.482 12 160.895 13.4933 160.895 15.36C160.895 17.1733 160.482 18.6667 159.655 19.84C158.855 21.0133 157.748 21.8933 156.335 22.48C154.922 23.0667 153.308 23.36 151.495 23.36H147.055V34H143.055ZM147.055 20.12H151.015C152.935 20.12 154.402 19.7333 155.415 18.96C156.428 18.16 156.935 16.96 156.935 15.36C156.935 13.76 156.428 12.64 155.415 12C154.402 11.3333 152.935 11 151.015 11H147.055V20.12ZM150.735 22.28L153.735 20L161.815 34H157.295L150.735 22.28ZM172.039 22.56C172.479 22.56 172.839 22.92 172.839 23.36V25.76C172.839 26.2 172.479 26.56 172.039 26.56H169.639C169.199 26.56 168.839 26.2 168.839 25.76V23.36C168.839 22.92 169.199 22.56 169.639 22.56H172.039ZM176.039 18.56C176.479 18.56 176.839 18.92 176.839 19.36V21.76C176.839 22.2 176.479 22.56 176.039 22.56H173.639C173.199 22.56 172.839 22.2 172.839 21.76V19.36C172.839 18.92 173.199 18.56 173.639 18.56H176.039ZM168.839 17.76V15.36C168.839 14.92 169.199 14.56 169.639 14.56H172.039C172.479 14.56 172.839 14.92 172.839 15.36V17.76C172.839 18.2 172.479 18.56 172.039 18.56H169.639C169.199 18.56 168.839 18.2 168.839 17.76ZM168.039 26.56C168.479 26.56 168.839 26.92 168.839 27.36V29.76C168.839 30.2 168.479 30.56 168.039 30.56H165.639C165.199 30.56 164.839 30.2 164.839 29.76V27.36C164.839 26.92 165.199 26.56 165.639 26.56H168.039ZM165.639 14.56C165.199 14.56 164.839 14.2 164.839 13.76V11.36C164.839 10.92 165.199 10.56 165.639 10.56H168.039C168.479 10.56 168.839 10.92 168.839 11.36V13.76C168.839 14.2 168.479 14.56 168.039 14.56H165.639Z" fill="#41BF9A"/>
<path d="M181.128 34V7.8H185.408L193.048 23.36L195.488 28.88H195.608C195.528 27.5467 195.408 26.1333 195.248 24.64C195.114 23.1467 195.048 21.6933 195.048 20.28V7.8H198.888V34H194.608L186.968 18.44L184.528 12.92H184.408C184.488 14.28 184.594 15.6933 184.728 17.16C184.888 18.6 184.968 20.0267 184.968 21.44V34H181.128ZM206.992 29.96H204.592C204.152 29.96 203.792 29.6 203.792 29.16V14.76C203.792 14.32 204.152 13.96 204.592 13.96H206.992C207.432 13.96 207.792 14.32 207.792 14.76V17.96H218.992C219.432 17.96 219.792 18.32 219.792 18.76V21.16C219.792 21.6 219.432 21.96 218.992 21.96H207.792V29.16C207.792 29.6 207.432 29.96 206.992 29.96ZM222.992 29.96H220.592C220.152 29.96 219.792 29.6 219.792 29.16V26.76C219.792 26.32 220.152 25.96 220.592 25.96H222.992C223.432 25.96 223.792 26.32 223.792 26.76V29.16C223.792 29.6 223.432 29.96 222.992 29.96ZM222.992 17.96H220.592C220.152 17.96 219.792 17.6 219.792 17.16V14.76C219.792 14.32 220.152 13.96 220.592 13.96H222.992C223.432 13.96 223.792 14.32 223.792 14.76V17.16C223.792 17.6 223.432 17.96 222.992 17.96ZM208.592 29.96H218.992C219.432 29.96 219.792 30.32 219.792 30.76V33.16C219.792 33.6 219.432 33.96 218.992 33.96H208.592C208.152 33.96 207.792 33.6 207.792 33.16V30.76C207.792 30.32 208.152 29.96 208.592 29.96ZM208.592 9.96H218.992C219.432 9.96 219.792 10.32 219.792 10.76V13.16C219.792 13.6 219.432 13.96 218.992 13.96H208.592C208.152 13.96 207.792 13.6 207.792 13.16V10.76C207.792 10.32 208.152 9.96 208.592 9.96ZM229.317 34L225.477 7.76H229.837L231.437 23.56C231.517 24.3067 231.584 25 231.637 25.64C231.691 26.2533 231.731 26.88 231.757 27.52C231.811 28.16 231.851 28.9067 231.877 29.76H231.997C232.157 28.9067 232.304 28.16 232.437 27.52C232.571 26.88 232.704 26.2533 232.837 25.64C232.971 25 233.117 24.32 233.277 23.6L235.637 14.48H238.997L241.237 23.6C241.424 24.32 241.584 24.9867 241.717 25.6C241.851 26.2133 241.984 26.8533 242.117 27.52C242.251 28.16 242.384 28.9067 242.517 29.76H242.677C242.731 28.9067 242.771 28.16 242.797 27.52C242.824 26.8533 242.864 26.2133 242.917 25.6C242.971 24.9867 243.024 24.32 243.077 23.6L244.637 7.76H248.797L245.117 34H240.397L238.077 24.08C237.917 23.28 237.757 22.48 237.597 21.68C237.437 20.88 237.304 20.08 237.197 19.28H237.077C236.971 20.08 236.851 20.88 236.717 21.68C236.584 22.48 236.411 23.28 236.197 24.08L233.917 34H229.317ZM261.222 34.48C259.355 34.48 257.595 34.1333 255.942 33.44C254.288 32.7467 252.848 31.8 251.622 30.6L253.942 27.88C254.955 28.8133 256.102 29.5733 257.382 30.16C258.662 30.72 260.022 31 261.462 31C263.115 31 264.395 30.6533 265.302 29.96C266.208 29.2667 266.662 28.3867 266.662 27.32C266.662 26.4667 266.462 25.7867 266.062 25.28C265.662 24.7733 265.115 24.3467 264.422 24C263.755 23.6533 262.982 23.3067 262.102 22.96L258.422 21.32C257.542 20.9733 256.662 20.52 255.782 19.96C254.928 19.3733 254.222 18.64 253.662 17.76C253.102 16.8533 252.822 15.76 252.822 14.48C252.822 13.12 253.195 11.9067 253.942 10.84C254.688 9.74667 255.728 8.89333 257.062 8.28C258.395 7.64 259.928 7.32 261.662 7.32C263.288 7.32 264.808 7.62666 266.222 8.24C267.635 8.82666 268.848 9.61333 269.862 10.6L267.782 13.16C266.928 12.4133 265.995 11.84 264.982 11.44C263.995 11.0133 262.822 10.8 261.462 10.8C260.102 10.8 258.995 11.1067 258.142 11.72C257.288 12.3333 256.862 13.1733 256.862 14.24C256.862 15.0133 257.075 15.64 257.502 16.12C257.955 16.6 258.528 17 259.222 17.32C259.942 17.64 260.675 17.96 261.422 18.28L264.982 19.84C266.075 20.2667 267.048 20.7867 267.902 21.4C268.782 21.9867 269.475 22.72 269.982 23.6C270.488 24.48 270.742 25.56 270.742 26.84C270.742 28.2533 270.355 29.5467 269.582 30.72C268.835 31.8667 267.742 32.7867 266.302 33.48C264.888 34.1467 263.195 34.48 261.222 34.48Z" fill="#B14ABF"/>
</svg>
