<svg width="48" height="40" viewBox="0 0 48 40" fill="none" xmlns="http://www.w3.org/2000/svg">
<path d="M3 34V7.8H7.04V18.56H16.96V7.8H21V34H16.96V22.04H7.04V34H3Z" fill="#41BF9A"/>
<path d="M27.1044 34V7.8H31.3844L39.0244 23.36L41.4644 28.88H41.5844C41.5044 27.5467 41.3844 26.1333 41.2244 24.64C41.091 23.1467 41.0244 21.6933 41.0244 20.28V7.8H44.8644V34H40.5844L32.9444 18.44L30.5044 12.92H30.3844C30.4644 14.28 30.571 15.6933 30.7044 17.16C30.8644 18.6 30.9444 20.0267 30.9444 21.44V34H27.1044Z" fill="#B14ABF"/>
</svg>
